<svg id="visual" viewBox="0 0 900 600" width="900" height="600" xmlns="http://www.w3.org/2000/svg" xmlns:xlink="http://www.w3.org/1999/xlink" version="1.1"><rect width="900" height="600" fill="#1e2839"></rect><g><g transform="translate(40 325)"><path d="M87.5 -33.4C97.2 1.5 77.8 41 47.7 62C17.5 83.1 -23.4 85.8 -52.8 66C-82.3 46.2 -100.3 3.9 -89.6 -32.5C-78.8 -68.8 -39.4 -99.1 -0.3 -99C38.9 -98.9 77.7 -68.4 87.5 -33.4Z" stroke="#c7a51a" fill="none" stroke-width="20"></path></g><g transform="translate(859 211)"><path d="M44.6 -14C50.5 3.5 42.8 25.9 27.6 36.6C12.5 47.3 -10.2 46.2 -24.9 35.3C-39.7 24.3 -46.6 3.5 -41.1 -13.4C-35.6 -30.4 -17.8 -43.4 0.8 -43.7C19.4 -43.9 38.8 -31.4 44.6 -14Z" stroke="#c7a51a" fill="none" stroke-width="20"></path></g><g transform="translate(596 17)"><path d="M49.3 -17C56.1 4.9 48.5 30.5 31.2 43.1C13.9 55.7 -13 55.3 -31.4 42.1C-49.8 29 -59.8 3.2 -53.1 -18.5C-46.5 -40.2 -23.2 -57.7 -1 -57.4C21.3 -57.1 42.5 -38.9 49.3 -17Z" stroke="#c7a51a" fill="none" stroke-width="20"></path></g><g transform="translate(323 205)"><path d="M75.3 -27.2C85 5.3 71.5 42.6 45.3 61.3C19.1 80.1 -19.7 80.4 -49 60.7C-78.3 41 -98 1.4 -88.2 -31.2C-78.4 -63.9 -39.2 -89.5 -3.2 -88.5C32.8 -87.4 65.7 -59.7 75.3 -27.2Z" stroke="#c7a51a" fill="none" stroke-width="20"></path></g><g transform="translate(617 483)"><path d="M46.9 -15.5C52.6 2.5 43.6 25 27.2 36.8C10.7 48.6 -13.1 49.7 -30.6 38C-48.1 26.2 -59.3 1.7 -53.1 -16.9C-47 -35.5 -23.5 -48 -1.5 -47.5C20.6 -47.1 41.1 -33.6 46.9 -15.5Z" stroke="#c7a51a" fill="none" stroke-width="20"></path></g><g transform="translate(344 472)"><path d="M59.9 -21.5C68.6 7.2 60.3 39.4 37.7 57C15.1 74.6 -21.7 77.6 -44.3 61.2C-66.9 44.7 -75.3 8.8 -65.5 -21.4C-55.7 -51.6 -27.9 -76.1 -1.1 -75.8C25.6 -75.4 51.2 -50.2 59.9 -21.5Z" stroke="#c7a51a" fill="none" stroke-width="20"></path></g><g transform="translate(42 59)"><path d="M64.7 -18.7C74 7.6 64.9 42.2 43.3 57.3C21.8 72.4 -12.2 67.9 -36.8 50.2C-61.3 32.4 -76.5 1.3 -68.8 -22.7C-61.1 -46.8 -30.6 -63.8 -1.4 -63.3C27.7 -62.8 55.4 -44.9 64.7 -18.7Z" stroke="#c7a51a" fill="none" stroke-width="20"></path></g><g transform="translate(887 559)"><path d="M80.8 -23.4C91.5 6.5 77.6 47.2 50.1 66.6C22.6 86 -18.6 84.2 -43.2 65C-67.8 45.9 -75.7 9.3 -65.8 -19.6C-55.8 -48.5 -27.9 -69.9 3.6 -71C35.1 -72.2 70.2 -53.2 80.8 -23.4Z" stroke="#c7a51a" fill="none" stroke-width="20"></path></g><g transform="translate(4 593)"><path d="M41.7 -14.3C46.9 2.4 39 22.6 23.8 33.9C8.7 45.1 -13.8 47.5 -27.6 37.5C-41.4 27.6 -46.7 5.4 -40.6 -12.5C-34.6 -30.3 -17.3 -43.7 0.5 -43.8C18.3 -44 36.6 -30.9 41.7 -14.3Z" stroke="#c7a51a" fill="none" stroke-width="20"></path></g></g></svg>