<svg id="visual" viewBox="0 0 900 600" width="900" height="600" xmlns="http://www.w3.org/2000/svg" xmlns:xlink="http://www.w3.org/1999/xlink" version="1.1"><rect width="900" height="600" fill="#1e2839"></rect><g><g transform="translate(765 106)"><path d="M56.1 -18.4C64.4 7.4 57.2 38.1 37.4 52.9C17.5 67.6 -14.9 66.4 -35.4 51C-56 35.5 -64.6 5.9 -56.7 -19.4C-48.8 -44.6 -24.4 -65.4 -0.3 -65.3C23.9 -65.2 47.7 -44.3 56.1 -18.4Z" stroke="#c7a51a" fill="none" stroke-width="20"></path></g><g transform="translate(67 84)"><path d="M37.2 -13.3C41.9 2.3 35 20.5 21.8 30.1C8.5 39.7 -11 40.8 -24.4 31.6C-37.8 22.3 -45.2 2.6 -40.1 -13.6C-35 -29.8 -17.5 -42.5 -0.6 -42.3C16.3 -42.1 32.5 -29 37.2 -13.3Z" stroke="#c7a51a" fill="none" stroke-width="20"></path></g><g transform="translate(567 47)"><path d="M31 -9.1C35.4 3.3 30.7 19.5 19.4 28C8.1 36.5 -9.7 37.2 -20.3 29.2C-31 21.2 -34.4 4.5 -29.8 -8.2C-25.2 -20.9 -12.6 -29.5 0.4 -29.6C13.3 -29.7 26.7 -21.4 31 -9.1Z" stroke="#c7a51a" fill="none" stroke-width="20"></path></g><g transform="translate(406 410)"><path d="M41 -15.8C46.1 2.3 38.3 22.1 23.4 33.3C8.4 44.4 -13.7 46.8 -29.2 36.4C-44.8 26 -53.9 2.7 -48 -16.6C-42 -35.9 -21 -51.4 -1.5 -50.9C18 -50.4 35.9 -33.9 41 -15.8Z" stroke="#c7a51a" fill="none" stroke-width="20"></path></g><g transform="translate(219 237)"><path d="M46.8 -15.3C54 7.1 48.8 33.5 33 44.9C17.3 56.2 -9 52.4 -27.5 38.7C-46.1 25.1 -56.8 1.6 -50.9 -18.9C-45 -39.5 -22.5 -57 -1.4 -56.5C19.8 -56.1 39.5 -37.7 46.8 -15.3Z" stroke="#c7a51a" fill="none" stroke-width="20"></path></g><g transform="translate(784 420)"><path d="M38.6 -12.7C43.8 3.3 37.4 23 24.7 31.7C12 40.4 -7 38.1 -19.9 28.5C-32.8 18.9 -39.6 1.9 -35.3 -13C-30.9 -27.9 -15.5 -40.8 0.6 -41C16.7 -41.2 33.5 -28.8 38.6 -12.7Z" stroke="#c7a51a" fill="none" stroke-width="20"></path></g><g transform="translate(287 583)"><path d="M44.6 -13C51.3 6.3 45.9 31 29.9 43.1C13.9 55.3 -12.7 54.7 -29.2 42.3C-45.6 29.8 -51.8 5.5 -45.2 -13.6C-38.7 -32.7 -19.3 -46.5 -0.2 -46.4C18.9 -46.3 37.8 -32.4 44.6 -13Z" stroke="#c7a51a" fill="none" stroke-width="20"></path></g><g transform="translate(347 90)"><path d="M30.4 -10.6C34.7 3.5 30.3 19.6 19.4 27.8C8.5 36 -9 36.2 -21.2 27.7C-33.4 19.2 -40.3 2 -35.9 -12.2C-31.4 -26.3 -15.7 -37.3 -1.4 -36.9C13 -36.4 26 -24.6 30.4 -10.6Z" stroke="#c7a51a" fill="none" stroke-width="20"></path></g><g transform="translate(79 419)"><path d="M40.2 -12.9C46.1 5 40.6 26.7 27 36.4C13.4 46.1 -8.4 43.8 -22.4 33.1C-36.5 22.3 -42.8 3.2 -37.8 -13.5C-32.8 -30.2 -16.4 -44.4 0.4 -44.6C17.2 -44.7 34.4 -30.7 40.2 -12.9Z" stroke="#c7a51a" fill="none" stroke-width="20"></path></g><g transform="translate(652 263)"><path d="M46.1 -16.7C51.2 0.5 40.6 21 25.2 31.4C9.8 41.8 -10.5 42.1 -25.6 32C-40.6 21.8 -50.4 1.1 -45.2 -16.1C-40.1 -33.4 -20 -47.3 0.3 -47.4C20.6 -47.5 41.1 -33.8 46.1 -16.7Z" stroke="#c7a51a" fill="none" stroke-width="20"></path></g><g transform="translate(592 542)"><path d="M28.9 -10.9C32.5 1.6 26.9 15.5 16.2 23.6C5.4 31.8 -10.6 34.2 -20.9 27.1C-31.1 20 -35.8 3.4 -31.3 -10.3C-26.9 -24 -13.5 -34.9 -0.4 -34.7C12.7 -34.6 25.3 -23.5 28.9 -10.9Z" stroke="#c7a51a" fill="none" stroke-width="20"></path></g><g transform="translate(851 591)"><path d="M46.6 -16.3C52.5 3.1 44 26 27.5 38C11 50 -13.5 51.2 -28.8 40C-44.1 28.8 -50.1 5.3 -43.8 -14.7C-37.4 -34.7 -18.7 -51.1 0.8 -51.3C20.3 -51.6 40.6 -35.7 46.6 -16.3Z" stroke="#c7a51a" fill="none" stroke-width="20"></path></g></g></svg>