<svg id="visual" viewBox="0 0 900 600" width="900" height="600" xmlns="http://www.w3.org/2000/svg" xmlns:xlink="http://www.w3.org/1999/xlink" version="1.1"><rect x="0" y="0" width="900" height="600" fill="#1e2839"></rect><g fill="none" stroke="#c7a51a" stroke-width="2"><circle r="79" cx="170" cy="260"></circle><circle r="34" cx="792" cy="142"></circle><circle r="37" cx="167" cy="587"></circle><circle r="77" cx="328" cy="470"></circle><circle r="52" cx="500" cy="147"></circle><circle r="50" cx="813" cy="421"></circle><circle r="41" cx="630" cy="588"></circle><circle r="38" cx="146" cy="33"></circle><circle r="38" cx="551" cy="428"></circle><circle r="34" cx="19" cy="201"></circle><circle r="76" cx="606" cy="11"></circle><circle r="49" cx="881" cy="582"></circle><circle r="69" cx="353" cy="64"></circle><circle r="47" cx="9" cy="397"></circle><circle r="70" cx="637" cy="275"></circle><circle r="51" cx="362" cy="267"></circle><circle r="60" cx="5" cy="577"></circle><circle r="37" cx="443" cy="598"></circle></g></svg>